<svg width="64" height="64" viewBox="0 0 64 64" fill="none" xmlns="http://www.w3.org/2000/svg">
<path d="M31.2532 3.86509L32 4.70356L32.7468 3.86509C34.3766 2.03511 36.7266 1 39.2 1C43.4766 1 47 4.38878 47 8.608C47 11.3955 45.8004 13.9654 43.1922 17.0913C40.6792 20.1032 36.9637 23.5108 32 28.0245C27.0366 23.5111 23.3196 20.1032 20.8055 17.1125C18.1927 14.0045 17 11.4845 17 8.8C17 4.52335 20.3888 1 24.608 1C27.284 1 29.6302 2.04274 31.2532 3.86509ZM3.86509 32.7468L4.70356 32L3.86509 31.2532C2.03511 29.6234 1 27.2734 1 24.8C1 20.5234 4.38878 17 8.608 17C11.3955 17 13.9654 18.1996 17.0913 20.8078C20.1032 23.3208 23.5108 27.0363 28.0245 32C23.5111 36.9634 20.1032 40.6804 17.1125 43.1945C14.0045 45.8073 11.4845 47 8.8 47C4.52335 47 1 43.6112 1 39.392C1 36.716 2.04274 34.3698 3.86509 32.7468ZM60.1349 31.2532L59.2964 32L60.1349 32.7468C61.9649 34.3766 63 36.7266 63 39.2C63 43.4766 59.6112 47 55.392 47C52.6046 47 50.0347 45.8004 46.9131 43.1926C43.9052 40.6797 40.5048 36.9641 36.0055 32C40.5045 27.0362 43.9052 23.319 46.892 20.8051C49.9956 18.1927 52.5156 17 55.2 17C59.4766 17 63 20.3888 63 24.608C63 27.284 61.9573 29.6302 60.1349 31.2532ZM32.7468 60.1349L32 59.2964L31.2532 60.1349C29.6234 61.9649 27.2734 63 24.8 63C20.5234 63 17 59.6112 17 55.392C17 52.6045 18.1996 50.0346 20.8078 46.9087C23.3208 43.8968 27.0363 40.4892 32 35.9755C36.9634 40.4889 40.6804 43.8968 43.1945 46.8875C45.8073 49.9955 47 52.5155 47 55.2C47 59.4766 43.6112 63 39.392 63C36.716 63 34.3698 61.9573 32.7468 60.1349Z" fill="#606C38" stroke="#B6B6B6" stroke-width="2"/>
</svg>
