<svg width="140" height="43" viewBox="0 0 140 43" fill="none" xmlns="http://www.w3.org/2000/svg">
<g filter="url(#filter0_d_425_99)">
<path d="M7.47953 34.48V25.72H26.2795V24.04H7.47953V20.76H16.7595V18.6H4.67953V14.92H34.2395V18.6H21.7995V20.76H31.9195V29.48H12.6395V30.76H31.9195V34.52H7.31953L7.47953 34.48ZM28.3195 5.72L25.8795 9.36H31.6795V13.24H7.75953V9.36H13.3995L10.5195 5.72H15.7195L18.3995 9.16H21.3195L23.1595 5.72H28.3195ZM7.75953 0.679998H31.6795V4.6H7.75953V0.679998ZM56.688 4.6V8.8H52.928C53.5413 9.28 54.048 9.88 54.448 10.6C54.8746 11.32 55.088 12.16 55.088 13.12V18.96C55.088 19.7867 54.9413 20.5733 54.648 21.32C54.3546 22.0667 53.9413 22.7333 53.408 23.32C52.9013 23.88 52.3013 24.3333 51.608 24.68C50.9146 25 50.1546 25.16 49.328 25.16H44.408C43.688 25.16 42.9813 25.0133 42.288 24.72C41.6213 24.4 41.0213 23.9733 40.488 23.44C39.9546 22.9067 39.528 22.2933 39.208 21.6C38.888 20.88 38.728 20.1067 38.728 19.28V13.12C38.728 12.16 38.9546 11.32 39.408 10.6C39.8613 9.88 40.4346 9.28 41.128 8.8H37.688V4.6H44.128V1.8H49.768V4.6H56.688ZM64.408 11.72H69.248V16.88H64.408V34.16H59.168V0.919998H64.408V11.72ZM50.248 14.08C50.248 13.36 50.0346 12.7467 49.608 12.24C49.1813 11.7333 48.6213 11.48 47.928 11.48H46.088C45.3946 11.48 44.768 11.7333 44.208 12.24C43.6746 12.7467 43.408 13.36 43.408 14.08V18.36C43.408 19.0533 43.6746 19.6 44.208 20C44.768 20.4 45.3946 20.6 46.088 20.6H47.928C48.6213 20.6 49.1813 20.4133 49.608 20.04C50.0346 19.6667 50.248 19.1333 50.248 18.44V14.08ZM92.178 1.2C92.978 1.2 93.778 1.29333 94.578 1.48C95.378 1.66667 96.0846 1.97333 96.698 2.4C97.338 2.8 97.8446 3.34667 98.218 4.04C98.618 4.73333 98.818 5.6 98.818 6.64V9.68C98.818 10.4267 98.6446 11.12 98.298 11.76C97.978 12.4 97.5246 12.96 96.938 13.44C96.378 13.92 95.698 14.2933 94.898 14.56C94.098 14.8267 93.2313 14.96 92.298 14.96H80.738C78.738 14.96 77.1246 14.5333 75.898 13.68C74.698 12.8 74.098 11.56 74.098 9.96V6.28C74.098 5.50666 74.258 4.81333 74.578 4.2C74.898 3.56 75.338 3.02667 75.898 2.6C76.458 2.14667 77.098 1.8 77.818 1.56C78.538 1.32 79.298 1.2 80.098 1.2H92.178ZM101.858 22.88H89.258V34.52H83.858V22.88H71.498V18H101.858V22.88ZM91.378 10.88C92.1513 10.88 92.778 10.6533 93.258 10.2C93.738 9.74667 93.978 9.06667 93.978 8.16C93.978 7.28 93.738 6.62666 93.258 6.2C92.778 5.77333 92.1513 5.56 91.378 5.56H81.378C80.4446 5.56 79.778 5.82667 79.378 6.36C79.0046 6.86667 78.818 7.46667 78.818 8.16C78.818 8.88 78.9913 9.52 79.338 10.08C79.6846 10.6133 80.3646 10.88 81.378 10.88H91.378ZM122.928 3C123.061 4.04 123.461 5.33333 124.128 6.88C124.794 8.42667 125.608 10.0533 126.568 11.76C127.528 13.4667 128.554 15.1467 129.648 16.8C130.741 18.4533 131.781 19.92 132.768 21.2H126.448C125.114 19.5467 123.954 17.8933 122.968 16.24C122.008 14.56 121.061 12.8667 120.128 11.16C119.354 12.84 118.434 14.5867 117.368 16.4C116.328 18.1867 115.234 19.7867 114.088 21.2H106.648C108.248 19.6533 109.648 17.9733 110.848 16.16C112.074 14.32 113.101 12.5467 113.928 10.84C114.781 9.10667 115.434 7.54667 115.888 6.16C116.341 4.74667 116.608 3.69333 116.688 3H122.928ZM135.328 30.48H104.888V25.72H135.328V30.48Z" fill="url(#paint0_linear_425_99)"/>
</g>
<defs>
<filter id="filter0_d_425_99" x="0.679688" y="0.679993" width="138.648" height="41.84" filterUnits="userSpaceOnUse" color-interpolation-filters="sRGB">
<feFlood flood-opacity="0" result="BackgroundImageFix"/>
<feColorMatrix in="SourceAlpha" type="matrix" values="0 0 0 0 0 0 0 0 0 0 0 0 0 0 0 0 0 0 127 0" result="hardAlpha"/>
<feOffset dy="4"/>
<feGaussianBlur stdDeviation="2"/>
<feComposite in2="hardAlpha" operator="out"/>
<feColorMatrix type="matrix" values="0 0 0 0 0 0 0 0 0 0 0 0 0 0 0 0 0 0 0.1 0"/>
<feBlend mode="normal" in2="BackgroundImageFix" result="effect1_dropShadow_425_99"/>
<feBlend mode="normal" in="SourceGraphic" in2="effect1_dropShadow_425_99" result="shape"/>
</filter>
<linearGradient id="paint0_linear_425_99" x1="70" y1="9" x2="70" y2="37" gradientUnits="userSpaceOnUse">
<stop stop-color="#5FC25D"/>
<stop offset="1" stop-color="#4E9E4D"/>
</linearGradient>
</defs>
</svg>
