<svg width="64" height="64" viewBox="0 0 64 64" fill="none" xmlns="http://www.w3.org/2000/svg">
<path d="M35.2256 6.96618L35.2261 6.96569C41.1979 -0.0764052 50.7182 -1.11342 57.0902 5.09247C64.5511 12.3707 64.9591 25.5164 58.2502 33.4288L58.25 33.429L34.0631 61.9712C34.0631 61.9712 34.063 61.9713 34.063 61.9714C32.8999 63.3429 31.0894 63.3429 29.9264 61.9714C29.9263 61.9713 29.9263 61.9712 29.9262 61.9712L5.73974 33.4295C-0.957554 25.5167 -0.549249 12.3701 6.91217 5.09194C13.2846 -1.11374 22.8165 -0.0755633 28.7751 6.96494L28.7762 6.96618L31.2387 9.86613L32.0009 10.7638L32.7632 9.86613L35.2256 6.96618Z" fill="#E5989B" stroke="#B6B6B6" stroke-width="2"/>
</svg>
