<svg width="25" height="25" viewBox="0 0 25 25" fill="none" xmlns="http://www.w3.org/2000/svg">
<path fill-rule="evenodd" clip-rule="evenodd" d="M10.2273 22.7201L11.9319 16.293L10.2273 14.4566L7.95459 13.5385L10.2273 22.7201ZM14.7729 22.7201L17.0456 13.5385L14.7729 14.4566L13.0684 16.293L14.7729 22.7201ZM17.6137 8.23036C17.5901 8.1921 17.5664 8.16341 17.5427 8.14428C17.4243 8.06777 16.8562 8.02951 15.8382 8.02951C15.0096 8.02951 14.0212 8.12037 12.873 8.30209C12.7901 8.32122 12.6658 8.33079 12.5001 8.33079C12.3344 8.33079 12.2101 8.32122 12.1272 8.30209C10.979 8.12037 9.99064 8.02951 9.16204 8.02951C8.14405 8.02951 7.57587 8.06777 7.4575 8.14428C7.43382 8.16341 7.41015 8.1921 7.38647 8.23036C7.41015 8.40252 7.43382 8.53164 7.4575 8.61772C7.48117 8.64641 7.52556 8.67749 7.59066 8.71097C7.65577 8.74444 7.70016 8.79465 7.72383 8.8616C7.74751 8.89986 7.7919 8.9979 7.857 9.15571C7.9221 9.31352 7.96353 9.41155 7.98129 9.44981C7.99905 9.48807 8.04343 9.56936 8.11446 9.6937C8.18548 9.81803 8.23579 9.89933 8.26538 9.93759C8.29497 9.97585 8.34824 10.0428 8.42518 10.1384C8.50212 10.2341 8.57315 10.2986 8.63825 10.3321C8.70335 10.3656 8.78621 10.411 8.88683 10.4684C8.98744 10.5258 9.09102 10.564 9.19755 10.5832C9.30409 10.6023 9.42542 10.6214 9.56154 10.6406C9.69767 10.6597 9.84268 10.6693 9.99656 10.6693C10.4227 10.6693 10.7719 10.6095 11.0441 10.4899C11.3164 10.3704 11.5087 10.2269 11.6212 10.0595C11.7337 9.89216 11.8195 9.72717 11.8787 9.56458C11.9378 9.40199 12.0059 9.26091 12.0828 9.14136C12.1598 9.02181 12.2634 8.96203 12.3936 8.96203H12.6066C12.7368 8.96203 12.8404 9.02181 12.9174 9.14136C12.9943 9.26091 13.0624 9.40199 13.1216 9.56458C13.1807 9.72717 13.2666 9.89216 13.379 10.0595C13.4915 10.2269 13.6838 10.3704 13.9561 10.4899C14.2283 10.6095 14.5775 10.6693 15.0037 10.6693C15.1575 10.6693 15.3025 10.6597 15.4387 10.6406C15.5748 10.6214 15.6961 10.6023 15.8027 10.5832C15.9092 10.564 16.0128 10.5258 16.1134 10.4684C16.214 10.411 16.2969 10.3656 16.362 10.3321C16.4271 10.2986 16.4981 10.2341 16.575 10.1384C16.652 10.0428 16.7052 9.97584 16.7348 9.93759C16.7644 9.89933 16.8147 9.81803 16.8858 9.6937C16.9568 9.56936 17.0012 9.48807 17.0189 9.44981C17.0367 9.41155 17.0781 9.31352 17.1432 9.15571C17.2083 8.9979 17.2527 8.89986 17.2764 8.8616C17.3001 8.79465 17.3444 8.74444 17.4095 8.71097C17.4747 8.67749 17.519 8.64641 17.5427 8.61772C17.5664 8.53164 17.5901 8.40252 17.6137 8.23036H17.6137ZM25 20.8407C25 21.998 24.5679 22.9066 23.7038 23.5665C22.8397 24.2264 21.6915 24.5564 20.2592 24.5564H4.74077C3.30848 24.5564 2.16028 24.2264 1.29617 23.5665C0.432055 22.9066 0 21.998 0 20.8407C0 20.2573 0.0266335 19.693 0.0799005 19.1478C0.133168 18.6027 0.24562 18.0025 0.417258 17.3474C0.588896 16.6922 0.810842 16.1017 1.0831 15.5756C1.35535 15.0496 1.73118 14.5547 2.21058 14.0908C2.68999 13.6269 3.24337 13.2707 3.87074 13.022L2.27272 9.86581H6.07244C5.81202 9.25371 5.68181 8.6416 5.68181 8.02949C5.68181 7.91472 5.69365 7.76169 5.71732 7.57041C3.42092 7.18784 2.27272 6.72876 2.27272 6.19317C2.27272 5.64801 3.51562 5.17458 6.00141 4.77289C6.20264 4.1799 6.50744 3.53911 6.91582 2.85049C7.32421 2.16187 7.74146 1.61671 8.1676 1.21502C8.54639 0.861141 8.9962 0.684204 9.51703 0.684204C9.87215 0.684204 10.3693 0.832449 11.0085 1.12894C11.6477 1.42543 12.1449 1.57367 12.5 1.57367C12.8551 1.57367 13.3523 1.42543 13.9915 1.12894C14.6307 0.832449 15.1278 0.684204 15.4829 0.684204C16.0038 0.684204 16.4536 0.861141 16.8324 1.21502C17.2585 1.61671 17.6758 2.16187 18.0841 2.85049C18.4925 3.53911 18.7973 4.17991 18.9986 4.77289C21.4844 5.17458 22.7273 5.64801 22.7273 6.19317C22.7273 6.72876 21.5791 7.18784 19.2827 7.57041C19.3655 8.34511 19.2471 9.11024 18.9275 9.86581H22.7273L21.2713 13.0937C22.017 13.4093 22.6533 13.8708 23.18 14.4781C23.7068 15.0855 24.0944 15.7717 24.343 16.5368C24.5916 17.302 24.7632 18.0264 24.8579 18.7103C24.9526 19.3941 25 20.1043 25 20.8407L25 20.8407Z" fill="#383834"/>
</svg>
