<svg width="106" height="43" viewBox="0 0 106 43" fill="none" xmlns="http://www.w3.org/2000/svg">
<g filter="url(#filter0_d_410_71)">
<path d="M18.5108 1.24C20.1908 1.24 21.4841 1.65333 22.3908 2.48C23.2975 3.28 23.7508 4.41333 23.7508 5.88V8C23.7508 8.77333 23.6041 9.45333 23.3108 10.04C23.0441 10.6267 22.6708 11.12 22.1908 11.52C21.7108 11.92 21.1508 12.2267 20.5108 12.44C19.8708 12.6267 19.1774 12.72 18.4308 12.72H11.9508C11.2308 12.72 10.5241 12.64 9.83078 12.48C9.16412 12.32 8.56412 12.0533 8.03078 11.68C7.52412 11.3067 7.11078 10.8267 6.79078 10.24C6.49745 9.65333 6.35078 8.93333 6.35078 8.08V5.76C6.35078 4.29333 6.87078 3.17333 7.91078 2.4C8.97745 1.62666 10.3508 1.24 12.0308 1.24H18.5108ZM33.7508 25.28H28.5108V23.6H20.9508V19.96H28.5108V0.799999H33.7508V25.28ZM34.6708 34.24H9.19078V24.4H14.3908V29.96H34.6708V34.24ZM4.19078 14.36H26.6708V18.52H15.5908V22.96H10.5108V18.52H4.19078V14.36ZM18.7908 6.56C18.7908 6 18.6041 5.56 18.2308 5.24C17.8841 4.92 17.4174 4.76 16.8308 4.76H13.4308C12.8174 4.76 12.3108 4.92 11.9108 5.24C11.5374 5.53333 11.3508 5.96 11.3508 6.52V7.36C11.3508 7.92 11.5241 8.37333 11.8708 8.72C12.2174 9.04 12.6974 9.2 13.3108 9.2H16.8708C17.4574 9.2 17.9241 9.04 18.2708 8.72C18.6174 8.37333 18.7908 7.92 18.7908 7.36V6.56ZM38.3711 3.88H55.6911V8.6H38.3711V3.88ZM54.0111 9.96L51.0911 22.12H55.6911V26.8H38.3711V22.12H42.8511L39.8911 9.96H44.2511L46.9711 20.56L49.7311 9.96H54.0111ZM58.3311 12.2V0.799999H62.6111V34.48H58.3311V17.88H55.0111V12.2H58.3311ZM64.9711 0.799999H69.6911V34.48H64.9711V0.799999ZM80.4589 27.08C79.6589 27.08 78.8856 26.9733 78.1389 26.76C77.4189 26.52 76.7656 26.1467 76.1789 25.64C75.6189 25.1067 75.1656 24.4 74.8189 23.52C74.4989 22.64 74.3389 21.56 74.3389 20.28V10.56C74.3389 9.52 74.4322 8.54667 74.6189 7.64C74.8056 6.70667 75.1522 5.90667 75.6589 5.24C76.1922 4.57333 76.9122 4.05333 77.8189 3.68C78.7522 3.28 79.9389 3.08 81.3789 3.08H84.0589C86.2456 3.08 87.9122 3.70667 89.0589 4.96C90.2322 6.21333 90.8189 8.09333 90.8189 10.6V19.84C90.8189 20.96 90.6589 21.9733 90.3389 22.88C90.0189 23.7867 89.5789 24.5467 89.0189 25.16C88.4856 25.7733 87.8589 26.2533 87.1389 26.6C86.4189 26.92 85.6589 27.08 84.8589 27.08H80.4589ZM101.619 1.24V34.48H96.4989V17.16H92.1789V11.6H96.4989V1.24H101.619ZM83.5389 22.96C84.0189 22.96 84.4189 22.8533 84.7389 22.64C85.0589 22.4 85.3122 22.12 85.4989 21.8C85.6856 21.4533 85.8189 21.08 85.8989 20.68C85.9789 20.2533 86.0189 19.84 86.0189 19.44V11.36C86.0189 10.9333 85.9922 10.48 85.9389 10C85.9122 9.52 85.8189 9.08 85.6589 8.68C85.4989 8.28 85.2456 7.96 84.8989 7.72C84.5789 7.45333 84.1256 7.32 83.5389 7.32H81.8989C81.2856 7.32 80.8056 7.42667 80.4589 7.64C80.1122 7.85333 79.8322 8.13333 79.6189 8.48C79.4322 8.82667 79.3122 9.22667 79.2589 9.68C79.2056 10.1067 79.1789 10.5333 79.1789 10.96V19.24C79.1789 19.56 79.1656 19.9333 79.1389 20.36C79.1122 20.7867 79.1656 21.2 79.2989 21.6C79.4322 21.9733 79.6856 22.2933 80.0589 22.56C80.4322 22.8267 81.0189 22.96 81.8189 22.96H83.5389Z" fill="url(#paint0_linear_410_71)"/>
</g>
<defs>
<filter id="filter0_d_410_71" x="0.190674" y="0.799988" width="105.428" height="41.68" filterUnits="userSpaceOnUse" color-interpolation-filters="sRGB">
<feFlood flood-opacity="0" result="BackgroundImageFix"/>
<feColorMatrix in="SourceAlpha" type="matrix" values="0 0 0 0 0 0 0 0 0 0 0 0 0 0 0 0 0 0 127 0" result="hardAlpha"/>
<feOffset dy="4"/>
<feGaussianBlur stdDeviation="2"/>
<feComposite in2="hardAlpha" operator="out"/>
<feColorMatrix type="matrix" values="0 0 0 0 0 0 0 0 0 0 0 0 0 0 0 0 0 0 0.1 0"/>
<feBlend mode="normal" in2="BackgroundImageFix" result="effect1_dropShadow_410_71"/>
<feBlend mode="normal" in="SourceGraphic" in2="effect1_dropShadow_410_71" result="shape"/>
</filter>
<linearGradient id="paint0_linear_410_71" x1="53.5" y1="9" x2="53.5" y2="37" gradientUnits="userSpaceOnUse">
<stop stop-color="#5B447E"/>
<stop offset="1" stop-color="#150B26"/>
</linearGradient>
</defs>
</svg>
