<svg width="64" height="64" viewBox="0 0 64 64" fill="none" xmlns="http://www.w3.org/2000/svg">
<path d="M35 48H36C35 48 35 48.0006 35 48.0013L35 48.0027L35 48.0061L35.0001 48.0145L35.0004 48.0383C35.0008 48.0573 35.0015 48.0826 35.0027 48.1139C35.0052 48.1765 35.0099 48.2635 35.0189 48.3741C35.0367 48.5954 35.0714 48.9109 35.1386 49.3144C35.2731 50.1216 35.5378 51.2792 36.0583 52.7363C36.981 55.32 38.7037 58.8344 41.916 63H22.2815C25.9293 58.8404 27.6506 55.3113 28.4378 52.6873C28.8832 51.2026 29.0267 50.0171 29.0544 49.1833C29.0683 48.7668 29.0533 48.4392 29.0331 48.207C29.023 48.0909 29.0116 47.9987 29.0018 47.9313C28.997 47.8975 28.9925 47.87 28.9888 47.8487L28.984 47.8216L28.9821 47.8115L28.9813 47.8074L28.9809 47.8056C28.9807 47.8047 28.9806 47.8039 28 48L28.9806 47.8039L28.6583 46.1927L27.3753 47.2191C23.6758 50.1787 20.0095 50.2 16 50.2C12.2544 50.2 8.47001 48.6954 5.6247 46.4191C2.76185 44.1288 1 41.1878 1 38.4C1 30.8813 5.66927 25.5433 12.1527 19.9576C13.6297 18.6851 15.2004 17.4013 16.8177 16.0793C21.9061 11.9202 27.456 7.38385 32 1.63841C36.544 7.38385 42.0939 11.9202 47.1823 16.0793C48.7996 17.4013 50.3703 18.6851 51.8473 19.9576C58.3307 25.5433 63 30.8813 63 38.4C63 41.1878 61.2382 44.1288 58.3753 46.4191C55.53 48.6954 51.7456 50.2 48 50.2C43.9905 50.2 40.3242 50.1787 36.6247 47.2191L35 45.9194V48Z" fill="#BBADFF" stroke="#B6B6B6" stroke-width="2"/>
</svg>
