<svg width="176" height="43" viewBox="0 0 176 43" fill="none" xmlns="http://www.w3.org/2000/svg">
<g filter="url(#filter0_d_425_97)">
<path d="M22.8723 3C23.0057 4.04 23.4057 5.33333 24.0723 6.88C24.739 8.42667 25.5523 10.0533 26.5123 11.76C27.4723 13.4667 28.499 15.1467 29.5923 16.8C30.6857 18.4533 31.7257 19.92 32.7123 21.2H26.3923C25.059 19.5467 23.899 17.8933 22.9123 16.24C21.9523 14.56 21.0057 12.8667 20.0723 11.16C19.299 12.84 18.379 14.5867 17.3123 16.4C16.2723 18.1867 15.179 19.7867 14.0323 21.2H6.59235C8.19235 19.6533 9.59235 17.9733 10.7923 16.16C12.019 14.32 13.0457 12.5467 13.8723 10.84C14.7257 9.10667 15.379 7.54667 15.8323 6.16C16.2857 4.74667 16.5523 3.69333 16.6323 3H22.8723ZM35.2723 30.48H4.83235V25.72H35.2723V30.48ZM64.0602 2.16V6.68H42.1002V2.16H64.0602ZM47.1002 17.56H64.5002V22.08H42.1002V9.64H64.0602V14.16H47.1002V17.56ZM38.3002 30.96V26.08H68.5002V30.96H38.3002ZM87.1336 4.08V17.8H78.0136V23.52H89.0936V27.72H72.7736V13.08H82.3736V8.8H72.3336V4.08H87.1336ZM92.7336 0.879998H97.3336V34.52H92.7336V17.92H88.6536V12.2H92.7336V0.879998ZM105.254 0.879998V34.52H100.534V0.879998H105.254ZM116.054 27.36C115.334 27.36 114.614 27.24 113.894 27C113.174 26.7333 112.507 26.3333 111.894 25.8C111.307 25.24 110.827 24.52 110.454 23.64C110.08 22.7333 109.894 21.64 109.894 20.36V10.84C109.894 9.8 110.054 8.84 110.374 7.96C110.72 7.05333 111.2 6.26667 111.814 5.6C112.454 4.93333 113.227 4.41333 114.134 4.04C115.04 3.66666 116.08 3.48 117.254 3.48H120.814C121.934 3.48 122.934 3.68 123.814 4.08C124.694 4.45333 125.44 4.98667 126.054 5.68C126.694 6.34667 127.174 7.13333 127.494 8.04C127.84 8.94667 128.014 9.92 128.014 10.96V20.6C128.014 21.6133 127.854 22.5333 127.534 23.36C127.24 24.1867 126.84 24.9067 126.334 25.52C125.827 26.1067 125.24 26.56 124.574 26.88C123.907 27.2 123.227 27.36 122.534 27.36H116.054ZM136.734 34.48H131.374V0.839999H136.734V34.48ZM120.054 23.24C120.56 23.24 120.987 23.1333 121.334 22.92C121.707 22.7067 122.014 22.44 122.254 22.12C122.494 21.7733 122.667 21.4 122.774 21C122.907 20.5733 122.974 20.1733 122.974 19.8V11.32C122.974 10.8933 122.894 10.4933 122.734 10.12C122.574 9.72 122.36 9.37333 122.094 9.08C121.854 8.76 121.547 8.52 121.174 8.36C120.827 8.17333 120.454 8.08 120.054 8.08H118.054C117.654 8.08 117.267 8.17333 116.894 8.36C116.52 8.52 116.187 8.76 115.894 9.08C115.627 9.37333 115.4 9.72 115.214 10.12C115.054 10.4933 114.974 10.8933 114.974 11.32V19.8C114.974 21.1067 115.227 22.0133 115.734 22.52C116.267 23 117.04 23.24 118.054 23.24H120.054ZM166.729 2.16V6.68H144.769V2.16H166.729ZM149.769 17.56H167.169V22.08H144.769V9.64H166.729V14.16H149.769V17.56ZM140.969 30.96V26.08H171.169V30.96H140.969Z" fill="url(#paint0_linear_425_97)"/>
</g>
<defs>
<filter id="filter0_d_425_97" x="0.83252" y="0.840027" width="174.337" height="41.68" filterUnits="userSpaceOnUse" color-interpolation-filters="sRGB">
<feFlood flood-opacity="0" result="BackgroundImageFix"/>
<feColorMatrix in="SourceAlpha" type="matrix" values="0 0 0 0 0 0 0 0 0 0 0 0 0 0 0 0 0 0 127 0" result="hardAlpha"/>
<feOffset dy="4"/>
<feGaussianBlur stdDeviation="2"/>
<feComposite in2="hardAlpha" operator="out"/>
<feColorMatrix type="matrix" values="0 0 0 0 0 0 0 0 0 0 0 0 0 0 0 0 0 0 0.1 0"/>
<feBlend mode="normal" in2="BackgroundImageFix" result="effect1_dropShadow_425_97"/>
<feBlend mode="normal" in="SourceGraphic" in2="effect1_dropShadow_425_97" result="shape"/>
</filter>
<linearGradient id="paint0_linear_425_97" x1="88" y1="9" x2="88" y2="37" gradientUnits="userSpaceOnUse">
<stop stop-color="#BD7B56"/>
<stop offset="1" stop-color="#A26B4C"/>
</linearGradient>
</defs>
</svg>
