<svg width="105" height="43" viewBox="0 0 105 43" fill="none" xmlns="http://www.w3.org/2000/svg">
<g filter="url(#filter0_d_425_96)">
<path d="M30.1031 2.16V6.68H8.14313V2.16H30.1031ZM13.1431 17.56H30.5431V22.08H8.14313V9.64H30.1031V14.16H13.1431V17.56ZM4.34313 30.96V26.08H34.5431V30.96H4.34313ZM56.1766 2.92V16.52H43.9766V22.12H56.1766V26.36H38.8566V11.8H51.4966V7.64H38.3766V2.92H56.1766ZM66.0566 34.56H60.8166V0.879998H66.0566V34.56ZM100.662 14.88V19.16H70.3022V14.88H100.662ZM73.9822 34.64V25.88H91.5822V24.2H73.9822V20.92H97.2222V29.52H79.1422V30.92H97.2222V34.68H73.8222L73.9822 34.64ZM73.8622 0.679998H97.3822V4.6H73.8622V0.679998ZM94.0222 5.72L91.5822 9.36H97.3822V13.24H73.8622V9.36H79.5022L76.6222 5.72H81.8222L84.5022 9.16H87.0222L88.8622 5.72H94.0222Z" fill="url(#paint0_linear_425_96)"/>
</g>
<defs>
<filter id="filter0_d_425_96" x="0.343262" y="0.679993" width="104.319" height="42" filterUnits="userSpaceOnUse" color-interpolation-filters="sRGB">
<feFlood flood-opacity="0" result="BackgroundImageFix"/>
<feColorMatrix in="SourceAlpha" type="matrix" values="0 0 0 0 0 0 0 0 0 0 0 0 0 0 0 0 0 0 127 0" result="hardAlpha"/>
<feOffset dy="4"/>
<feGaussianBlur stdDeviation="2"/>
<feComposite in2="hardAlpha" operator="out"/>
<feColorMatrix type="matrix" values="0 0 0 0 0 0 0 0 0 0 0 0 0 0 0 0 0 0 0.1 0"/>
<feBlend mode="normal" in2="BackgroundImageFix" result="effect1_dropShadow_425_96"/>
<feBlend mode="normal" in="SourceGraphic" in2="effect1_dropShadow_425_96" result="shape"/>
</filter>
<linearGradient id="paint0_linear_425_96" x1="52.5" y1="9" x2="52.5" y2="37" gradientUnits="userSpaceOnUse">
<stop stop-color="#528BE0"/>
<stop offset="1" stop-color="#4359A9"/>
</linearGradient>
</defs>
</svg>
