<svg width="106" height="44" viewBox="0 0 106 44" fill="none" xmlns="http://www.w3.org/2000/svg">
<g filter="url(#filter0_d_425_95)">
<path d="M30.1341 0.919999V5.04H8.17406V0.919999H30.1341ZM12.7741 13.36H30.5741V17.52H8.17406V7.04H30.1341V11.16H12.7741V13.36ZM35.0541 20.72V25.32H21.9341V35.44H16.3341V25.32H4.05406V20.72H35.0541ZM38.5078 4.88H55.8278V9.6H38.5078V4.88ZM54.1478 10.96L51.2278 23.12H55.8278V27.8H38.5078V23.12H42.9878L40.0278 10.96H44.3878L47.1078 21.56L49.8678 10.96H54.1478ZM58.4678 13.2V1.8H62.7478V35.48H58.4678V18.88H55.1478V13.2H58.4678ZM65.1078 1.8H69.8278V35.48H65.1078V1.8ZM80.5956 28.08C79.7956 28.08 79.0223 27.9733 78.2756 27.76C77.5556 27.52 76.9023 27.1467 76.3156 26.64C75.7556 26.1067 75.3023 25.4 74.9556 24.52C74.6356 23.64 74.4756 22.56 74.4756 21.28V11.56C74.4756 10.52 74.569 9.54667 74.7556 8.64C74.9423 7.70667 75.289 6.90667 75.7956 6.24C76.329 5.57333 77.049 5.05333 77.9556 4.68C78.889 4.28 80.0756 4.08 81.5156 4.08H84.1956C86.3823 4.08 88.049 4.70667 89.1956 5.96C90.369 7.21333 90.9556 9.09333 90.9556 11.6V20.84C90.9556 21.96 90.7956 22.9733 90.4756 23.88C90.1556 24.7867 89.7156 25.5467 89.1556 26.16C88.6223 26.7733 87.9956 27.2533 87.2756 27.6C86.5556 27.92 85.7956 28.08 84.9956 28.08H80.5956ZM101.756 2.24V35.48H96.6356V18.16H92.3156V12.6H96.6356V2.24H101.756ZM83.6756 23.96C84.1556 23.96 84.5556 23.8533 84.8756 23.64C85.1956 23.4 85.449 23.12 85.6356 22.8C85.8223 22.4533 85.9556 22.08 86.0356 21.68C86.1156 21.2533 86.1556 20.84 86.1556 20.44V12.36C86.1556 11.9333 86.129 11.48 86.0756 11C86.049 10.52 85.9556 10.08 85.7956 9.68C85.6356 9.28 85.3823 8.96 85.0356 8.72C84.7156 8.45333 84.2623 8.32 83.6756 8.32H82.0356C81.4223 8.32 80.9423 8.42667 80.5956 8.64C80.249 8.85333 79.969 9.13333 79.7556 9.48C79.569 9.82667 79.449 10.2267 79.3956 10.68C79.3423 11.1067 79.3156 11.5333 79.3156 11.96V20.24C79.3156 20.56 79.3023 20.9333 79.2756 21.36C79.249 21.7867 79.3023 22.2 79.4356 22.6C79.569 22.9733 79.8223 23.2933 80.1956 23.56C80.569 23.8267 81.1556 23.96 81.9556 23.96H83.6756Z" fill="url(#paint0_linear_425_95)"/>
</g>
<defs>
<filter id="filter0_d_425_95" x="0.0539551" y="0.919983" width="105.702" height="42.56" filterUnits="userSpaceOnUse" color-interpolation-filters="sRGB">
<feFlood flood-opacity="0" result="BackgroundImageFix"/>
<feColorMatrix in="SourceAlpha" type="matrix" values="0 0 0 0 0 0 0 0 0 0 0 0 0 0 0 0 0 0 127 0" result="hardAlpha"/>
<feOffset dy="4"/>
<feGaussianBlur stdDeviation="2"/>
<feComposite in2="hardAlpha" operator="out"/>
<feColorMatrix type="matrix" values="0 0 0 0 0 0 0 0 0 0 0 0 0 0 0 0 0 0 0.1 0"/>
<feBlend mode="normal" in2="BackgroundImageFix" result="effect1_dropShadow_425_95"/>
<feBlend mode="normal" in="SourceGraphic" in2="effect1_dropShadow_425_95" result="shape"/>
</filter>
<linearGradient id="paint0_linear_425_95" x1="53.5" y1="10" x2="53.5" y2="38" gradientUnits="userSpaceOnUse">
<stop offset="0.0001" stop-color="#DB71AA"/>
<stop offset="1" stop-color="#DC619C"/>
</linearGradient>
</defs>
</svg>
